<svg t="1566956293331" class="icon" viewBox="0 0 1024 1024" version="1.1" xmlns="http://www.w3.org/2000/svg" p-id="3484" width="200" height="200"><path d="M881.4848 491.45856A220.6208 220.6208 0 0 0 885.76 448c0-99.8912-66.8928-184.3968-158.21312-211.2256 0.82944-2.52928 1.62816-5.06368 2.31936-7.64416 20.4544-76.35456-25.02144-155.1104-101.37088-175.57504-76.35968-20.4544-155.12064 25.01632-175.58016 101.36576-0.50176 1.86368-0.86016 3.74784-1.28 5.62688A245.85728 245.85728 0 0 0 384 151.04c-135.51104 0-245.76 110.24896-245.76 245.76 0 30.96576 5.93408 61.5936 17.19296 90.14784C116.096 497.45408 87.04 533.39648 87.04 576c0 50.816 41.344 92.16 92.16 92.16h15.36v266.24a40.96 40.96 0 0 0 40.96 40.96h563.2a40.96 40.96 0 0 0 40.96-40.96v-266.24h5.12c50.816 0 92.16-41.344 92.16-92.16 0-37.7856-22.8608-70.33344-55.4752-84.54144zM478.72 668.16v225.28H414.72v-225.28h64z m81.92 0H624.64v225.28h-64v-225.28z m-28.60032-492.032a61.05088 61.05088 0 0 1 28.62592-37.31456 60.96896 60.96896 0 0 1 46.62272-6.13376c32.72192 8.76544 52.20864 42.52672 43.4432 75.2384a61.50144 61.50144 0 0 1-10.5216 21.41696 218.4704 218.4704 0 0 0-62.17728 16.6144 245.98528 245.98528 0 0 0-48.11776-46.88896 41.984 41.984 0 0 0 0.05632-4.4032 61.53216 61.53216 0 0 1 2.06848-18.52928zM276.48 668.16h56.32v225.28H276.48v-225.28z m481.28 225.28h-51.2v-225.28h51.2v225.28z" p-id="3485"></path></svg>
