<?xml version="1.0" standalone="no"?><!DOCTYPE svg PUBLIC "-//W3C//DTD SVG 1.1//EN" "http://www.w3.org/Graphics/SVG/1.1/DTD/svg11.dtd"><svg t="1566979053879" class="icon" viewBox="0 0 1024 1024" version="1.1" xmlns="http://www.w3.org/2000/svg" p-id="1955" xmlns:xlink="http://www.w3.org/1999/xlink" width="200" height="200"><defs><style type="text/css"></style></defs><path d="M65.163636 479.418182c-34.909091 34.909091-23.272727 62.836364 27.927273 62.836363h76.8V898.327273C169.890909 930.909091 195.490909 954.181818 225.745455 954.181818h144.290909c30.254545 0 55.854545-23.272727 55.854545-53.527273v-181.527272c0-11.636364 9.309091-20.945455 23.272727-20.945455H581.818182c11.636364 0 23.272727 9.309091 23.272727 20.945455v181.527272c0 30.254545 25.6 53.527273 55.854546 53.527273h144.290909c30.254545 0 55.854545-23.272727 55.854545-53.527273V544.581818h69.818182c48.872727 0 62.836364-27.927273 27.927273-62.836363L574.836364 95.418182c-34.909091-34.909091-90.763636-34.909091-125.672728 0L65.163636 479.418182z" p-id="1956"></path></svg>